<svg xmlns="http://www.w3.org/2000/svg" xmlns:xlink="http://www.w3.org/1999/xlink" viewBox="0 0 1366 748.46"><defs><style>.cls-1{fill:url(#linear-gradient);}</style><linearGradient id="linear-gradient" x1="181.5" y1="634.56" x2="1333.86" y2="-27.73" gradientUnits="userSpaceOnUse"><stop offset="0.04" stop-color="#f96" stop-opacity="0.68"/><stop offset="0.24" stop-color="#ff929d" stop-opacity="0.9"/><stop offset="0.4" stop-color="#ff99a3" stop-opacity="0.93"/><stop offset="0.88" stop-color="#fff"/><stop offset="0.9" stop-color="snow" stop-opacity="0.99"/></linearGradient></defs><g id="Layer_2" data-name="Layer 2"><g id="Layer_1-2" data-name="Layer 1"><path class="cls-1" d="M71.23,682.94a270,270,0,0,1,124.89,30.37c10.33,5.36,21.43,19.42,33.73,19.39,13.09,0,26.89-16,38.06-21.5a272.2,272.2,0,0,1,120.28-28.26,271.87,271.87,0,0,1,102.17,19.87,261.34,261.34,0,0,1,46.26,24.26c10,6.63,15.7,20.84,29,21.38,10.61.43,21.37-11,28.66-16.14a272.19,272.19,0,0,1,229-39.49c17.81,4.95,47,26.23,64.05,25.64,9.67-.33,25.27-12.33,34.64-16a285.17,285.17,0,0,1,33.48-10.94,269,269,0,0,1,146,3.23c16.35,5,45.17,26,61.79,21.73,20-5.11,38.72-18.52,59.46-24.13a273.47,273.47,0,0,1,143.27.34V368s-15-180-284-173S683,0,683,0H0V692.39A272,272,0,0,1,71.23,682.94Z"/></g></g></svg>