<svg xmlns="http://www.w3.org/2000/svg" viewBox="0 0 1921 963"><defs><style>.cls-1{opacity:0.53;}.cls-2{fill:#fc8692;}</style></defs><g id="Layer_2" data-name="Layer 2"><g id="Layer_1-2" data-name="Layer 1"><g class="cls-1"><rect class="cls-2" x="1" y="411.68" width="67.96" height="409.72" rx="33.81"/><rect class="cls-2" x="136.93" y="420.72" width="67.96" height="497.09" rx="33.81"/><rect class="cls-2" x="269.86" y="420.72" width="67.96" height="409.72" rx="33.81"/><rect class="cls-2" x="401.79" y="430.76" width="67.96" height="234.99" rx="33.81"/><rect class="cls-2" x="537.72" y="431.77" width="67.96" height="469.97" rx="33.81"/><rect class="cls-2" x="673.65" y="431.77" width="67.96" height="295.24" rx="33.81"/><rect class="cls-2" x="809.58" y="429.76" width="67.96" height="409.72" rx="33.81"/><rect class="cls-2" x="944.51" y="442.81" width="67.96" height="251.05" rx="33.81"/><rect class="cls-2" x="1078.44" y="441.81" width="67.96" height="409.72" rx="33.81"/><rect class="cls-2" x="1214.37" y="441.81" width="67.96" height="521.19" rx="33.81"/><rect class="cls-2" x="1344.3" y="444.82" width="67.96" height="441.86" rx="33.81"/><rect class="cls-2" x="1480.23" y="444.82" width="67.96" height="409.72" rx="33.81"/><rect class="cls-2" x="1614.16" y="444.82" width="67.96" height="223.94" rx="33.81"/><rect class="cls-2" x="1750.09" y="444.82" width="67.96" height="336.41" rx="33.81"/><path class="cls-2" d="M1920,450.85h0V11H1V588.43H69V492a34.06,34.06,0,0,1,34-34.14h0a34.06,34.06,0,0,1,34,34.14v96.41h68V455.87a34.06,34.06,0,0,1,34-34.14h0a34.06,34.06,0,0,1,34,34.14V588.43h61V455.87a34.05,34.05,0,0,1,34-34.14h0a34.05,34.05,0,0,1,34,34.14V588.43h68V463.9a34.06,34.06,0,0,1,34-34.14h0a34.06,34.06,0,0,1,34,34.14V588.43h68V437.79a34.06,34.06,0,0,1,34-34.14h0a34.06,34.06,0,0,1,34,34.14V588.43h68V496a34.07,34.07,0,0,1,34-34.15h0a34.07,34.07,0,0,1,34,34.15v92.39h67v-47.2a34.07,34.07,0,0,1,34-34.15h0a34.07,34.07,0,0,1,34,34.15v47.2h66V468.92a34,34,0,1,1,68,0V588.43h68V476a34,34,0,1,1,68,0V588.43h62V479a34,34,0,1,1,68,0V588.43h68V479a34,34,0,1,1,68,0V588.43h68V479a34,34,0,1,1,68,0V588.43h66V479a34,34,0,1,1,68,0V588.43h68V478a34,34,0,1,1,68,0V826.43a34.06,34.06,0,0,0,34,34.14h0l1-35.15-1-269.13Z"/></g><rect class="cls-2" y="395.21" width="68" height="404.13" rx="34"/><rect class="cls-2" x="136" y="404.13" width="68" height="490.3" rx="34"/><rect class="cls-2" x="269" y="404.13" width="68" height="404.13" rx="34"/><rect class="cls-2" x="401" y="414.03" width="68" height="231.78" rx="34"/><rect class="cls-2" x="537" y="415.02" width="68" height="463.56" rx="34"/><rect class="cls-2" x="673" y="415.02" width="68" height="291.21" rx="34"/><rect class="cls-2" x="809" y="413.04" width="68" height="404.13" rx="34"/><rect class="cls-2" x="944" y="425.92" width="68" height="247.63" rx="34"/><rect class="cls-2" x="1078" y="424.93" width="68" height="404.13" rx="34"/><rect class="cls-2" x="1214" y="424.93" width="68" height="514.07" rx="34"/><rect class="cls-2" x="1344" y="427.9" width="68" height="435.82" rx="34"/><rect class="cls-2" x="1480" y="427.9" width="68" height="404.13" rx="34"/><rect class="cls-2" x="1614" y="427.9" width="68" height="220.88" rx="34"/><rect class="cls-2" x="1750" y="427.9" width="68" height="331.82" rx="34"/><path class="cls-2" d="M1920,433.84h0V0H0V569.54H68V474.45a33.83,33.83,0,0,1,34-33.67h0a33.83,33.83,0,0,1,34,33.67v95.09h68V438.79a33.83,33.83,0,0,1,34-33.67h0a33.83,33.83,0,0,1,34,33.67V569.54h61V438.79a33.83,33.83,0,0,1,34-33.67h0a33.83,33.83,0,0,1,34,33.67V569.54h68V446.72A33.84,33.84,0,0,1,503,413h0a33.84,33.84,0,0,1,34,33.68V569.54h68V421a33.84,33.84,0,0,1,34-33.68h0A33.84,33.84,0,0,1,673,421V569.54h68V478.41a33.84,33.84,0,0,1,34-33.67h0a33.84,33.84,0,0,1,34,33.67v91.13h67V523a33.84,33.84,0,0,1,34-33.68h0A33.84,33.84,0,0,1,944,523v46.55h66V451.67a34,34,0,0,1,68,0V569.54h68V458.6a34,34,0,0,1,68,0V569.54h62v-108a34,34,0,0,1,68,0v108h68v-108a34,34,0,0,1,68,0v108h68v-108a34,34,0,0,1,68,0v108h66v-108a34,34,0,0,1,68,0v108h68V460.59a34,34,0,0,1,68,0v343.7A33.84,33.84,0,0,0,1920,838h0l1-34.67-1-265.46Z"/></g></g></svg>